<svg xmlns="http://www.w3.org/2000/svg" width="580" height="265" viewBox="0 0 580 265">
  <defs>
    <style>
      .cls-1 {
        fill: #f20530;
      }

      .cls-2 {
        fill: #465902;
      }
    </style>
  </defs>
  <g id="Layer_2" data-name="Layer 2">
    <path class="cls-1" d="M18.67,55.08c-4-4.23-3.06-10.85-2.52-14.65.43-3.07,1.48-10.54,7.65-16.95a28.6,28.6,0,0,1,27.83-7.66c2.89.79,10.65,3.45,15.32,10.87,5.94,9.44,4.93,23.48-.67,31.38-1.17,1.65-2.8,3.42-3.26,6.43-.86,5.78,2.93,11.44,4.65,12.31,12.86,6.52,24,8.16,40.87,11.39,16.73,3.19,9.8,3.27,40.76,9.15,21.08,4,41.55,10.82,62.55,15.22,2.14.45,7.64,1.59,11.51,6.14a18.38,18.38,0,0,1,3.5,16.4c-2.38,8.18-11.06,12.24-14.09,13.69-12,5.7-39.91,21.82-95.8,54-23.39,13.49-47,25.65-70.55,39.8-3,1.82-11.45,10-19.76,7.71-7.32-2-10.92-10.89-11.35-12a26.66,26.66,0,0,1-.78-15.63C20,198.09,28.91,183.38,33.46,162.7c0,0,8.1-36.78,14.65-47.3.56-.89,2.15-3.44,4.73-3.82,2-.29,4,.71,4.09,1.14.83,7.57-6.12,29.86-6.12,29.86-21.23,58.75-20,48.39-24.2,71.07-.37,2-9.74,34.38,4.94,27.06C40,236.5,49.76,231.88,76,215.65l19.16-10.81c13.35-7.53,26.6-15.26,40.06-22.6,26-14.22,49.7-33,77-44.61,1.47-.62,5.95-2.45,6.86-6.16,1-4.26-2.88-9-4.54-10.07-10.63-6.64-28.76-8.37-44.46-11.66C126,100.5,140,102.5,75.53,90.74a34.44,34.44,0,0,1-12.75-4.28c-5.58-3.43-8.36-10.83-8.47-17C54.2,63.06,57,62.2,59.63,50.35,61.23,43.24,62,39.62,60.7,36,58.59,30,52.62,25.62,46.25,24.6A18.64,18.64,0,0,0,33,27.5c-1.18.81-6.77,4.83-7.5,11.12C25,42.25,26.6,43.4,27,51.53c.23,4.57-.19,5.77-1,6.32C24.23,59,20.71,57.24,18.67,55.08Z"/>
  </g>
  <g id="Layer_1" data-name="Layer 1">
    <g>
      <path class="cls-2" d="M84.71,170.31V172h19v10.79h-19v16.92h-14V170.52c0-13.47,8.82-21.15,23.91-21.15,5.71,0,10.93,1.13,14.52,3.24l-4.09,10.72a19,19,0,0,0-9.37-2.4C88.65,160.93,84.71,164,84.71,170.31Z"/>
      <path class="cls-2" d="M152.54,161.5v38.21H139.78v-3.8c-2.54,3-6.28,4.44-11.29,4.44-10.36,0-18.75-7.62-18.75-19.81s8.39-19.68,18.75-19.68c4.45,0,8,1.27,10.65,3.95V161.5Zm-13.19,19c0-5.79-3.52-9-8-9s-8,3.24-8,9,3.52,9.16,8,9.16S139.35,186.39,139.35,180.54Z"/>
      <path class="cls-2" d="M158.11,196.4l4-9.17a26.77,26.77,0,0,0,13.33,3.53c4.51,0,6-1,6-2.61,0-5.15-22.56.71-22.56-14.6,0-7.19,6.63-12.69,18.61-12.69,5.36,0,11.28,1.13,15.09,3.25l-4,9.09a22.42,22.42,0,0,0-11-2.82c-4.51,0-6.13,1.27-6.13,2.68,0,5.29,22.49-.42,22.49,14.74,0,7-6.49,12.55-18.9,12.55C168.55,200.35,161.85,198.73,158.11,196.4Z"/>
      <path class="cls-2" d="M240.4,177.86v21.85H227V180c0-5.5-2.39-7.83-6.27-7.83-4.3,0-7.62,2.68-7.62,9v18.47H199.72V147.39h13.39V165a16.56,16.56,0,0,1,11.5-4.16C233.56,160.86,240.4,166,240.4,177.86Z"/>
      <path class="cls-2" d="M247.31,150.14c0-4,3.25-7.12,8.18-7.12s8.18,2.89,8.18,6.91c0,4.23-3.24,7.34-8.18,7.34S247.31,154.16,247.31,150.14Zm1.48,11.36h13.4v38.21h-13.4Z"/>
      <path class="cls-2" d="M268.47,180.54c0-11.5,9.09-19.68,21.57-19.68s21.58,8.18,21.58,19.68-9,19.81-21.58,19.81S268.47,192.1,268.47,180.54Zm29.61,0c0-5.79-3.45-9-8-9s-8,3.24-8,9,3.53,9.16,8,9.16S298.08,186.39,298.08,180.54Z"/>
      <path class="cls-2" d="M358.51,177.86v21.85h-13.4V180c0-5.5-2.39-7.83-6.27-7.83-4.3,0-7.62,2.68-7.62,9v18.47H317.83V161.5h12.76v4.16a16.39,16.39,0,0,1,12.13-4.8C351.67,160.86,358.51,166,358.51,177.86Z"/>
      <path class="cls-2" d="M398.71,199.71l-10.23-15.3-10.08,15.3H362.46l18-25-17.2-24.39H379l9.87,14.24,9.73-14.24h15.09l-17.2,23.83,18.33,25.52Z"/>
      <path class="cls-2" d="M461,180.61c0,12.12-8.39,19.74-18.76,19.74-4.44,0-8-1.34-10.64-4v17.06h-13.4V161.5h12.76v3.8c2.54-3,6.28-4.44,11.28-4.44C452.58,160.86,461,168.48,461,180.61Zm-13.54,0c0-5.79-3.52-9.1-8-9.1s-8,3.31-8,9.1,3.52,9.09,8,9.09S447.43,186.39,447.43,180.61Z"/>
      <path class="cls-2" d="M496.44,186.81l7,7.33c-3.6,4.09-9,6.21-16.22,6.21-13.61,0-22.42-8.39-22.42-19.81s9-19.68,21.15-19.68c11,0,20.24,7,20.31,19.46L479,185.54c1.48,3.1,4.44,4.58,8.67,4.58A12.24,12.24,0,0,0,496.44,186.81Zm-18.55-8.11,15.52-3a7.33,7.33,0,0,0-7.41-5.29C481.42,170.38,478.32,173.27,477.89,178.7Z"/>
      <path class="cls-2" d="M538,160.86v12.06a24.52,24.52,0,0,0-3-.21c-5.43,0-9.17,2.75-9.17,9.45v17.55H512.45V161.5h12.76v4.58C528,162.62,532.4,160.86,538,160.86Z"/>
      <path class="cls-2" d="M568.15,198.16c-2.32,1.48-5.78,2.19-9.31,2.19-9.8,0-15.44-4.8-15.44-14.6V153h13.4v9.95h8.67v10H556.8v12.69c0,2.82,1.55,4.37,4,4.37a7.38,7.38,0,0,0,4.09-1.19Z"/>
    </g>
  </g>
</svg>
